<svg xmlns="http://www.w3.org/2000/svg" viewBox="0 0 360 440" role="img" aria-labelledby="title desc">
  <title id="title">Ajeesh and Sona wedding emblem</title>
  <desc id="desc">An A and S monogram framed by a Kerala-inspired arch and an abstract couple silhouette.</desc>
  <defs>
    <linearGradient id="gold" x1="0" y1="0" x2="1" y2="1">
      <stop offset="0" stop-color="#d8b779"/>
      <stop offset=".52" stop-color="#a87534"/>
      <stop offset="1" stop-color="#e2c995"/>
    </linearGradient>
    <linearGradient id="ink" x1="0" y1="0" x2="0" y2="1">
      <stop offset="0" stop-color="#4a2b43"/>
      <stop offset="1" stop-color="#2f3f3d"/>
    </linearGradient>
    <filter id="shadow" x="-30%" y="-30%" width="160%" height="160%">
      <feDropShadow dx="0" dy="10" stdDeviation="12" flood-color="#382034" flood-opacity=".16"/>
    </filter>
  </defs>

  <g fill="none" stroke="url(#gold)" stroke-linecap="round" stroke-linejoin="round">
    <path d="M54 374V174C54 89 110 35 180 35s126 54 126 139v200" stroke-width="2.5"/>
    <path d="M68 374V177C68 103 116 51 180 51s112 52 112 126v197" stroke-width=".9" opacity=".65"/>
    <path d="M44 382h272M68 397h224" stroke-width="2"/>
    <path d="M31 371c30-6 46 4 52 27M329 371c-30-6-46 4-52 27" stroke-width="1.3"/>
  </g>

  <g fill="none" stroke="url(#gold)" stroke-width="1.25" stroke-linecap="round">
    <path d="M70 174C31 151 22 117 31 76c29 18 48 45 39 98Z"/>
    <path d="M61 158c-5-25-14-48-30-69M51 137l-22-4M57 152l12-20"/>
    <path d="M290 174c39-23 48-57 39-98-29 18-48 45-39 98Z"/>
    <path d="M299 158c5-25 14-48 30-69M309 137l22-4M303 152l-12-20"/>
    <path d="M102 69c-15-26-7-47 9-60 14 24 10 44-9 60ZM258 69c15-26 7-47-9-60-14 24-10 44 9 60Z"/>
  </g>

  <g filter="url(#shadow)">
    <circle cx="148" cy="200" r="24" fill="#3c2b39"/>
    <circle cx="212" cy="194" r="22" fill="#355f5a"/>
    <path d="M104 319c3-61 14-96 44-96 31 0 43 38 45 96Z" fill="#3c2b39"/>
    <path d="M168 319c3-67 16-103 45-103 30 0 41 39 43 103Z" fill="#355f5a"/>
    <path d="M181 224c9 19 15 49 16 95" fill="none" stroke="#d5b272" stroke-width="2" opacity=".8"/>
  </g>

  <g fill="none" stroke="#f0dfbd" stroke-width="1.4" opacity=".76">
    <path d="M126 250c14 12 29 16 45 15M191 246c13 10 27 13 42 11"/>
    <path d="M218 216c14 10 22 25 26 45"/>
  </g>

  <g fill="url(#gold)">
    <circle cx="180" cy="89" r="3"/>
    <circle cx="164" cy="93" r="1.4"/>
    <circle cx="196" cy="93" r="1.4"/>
    <path d="m180 71 4.5 8.5L180 88l-4.5-8.5Z"/>
  </g>

  <g fill="url(#ink)" text-anchor="middle">
    <text x="180" y="365" font-family="Georgia, 'Times New Roman', serif" font-size="50" letter-spacing="5">A·S</text>
    <text x="180" y="420" font-family="Arial, sans-serif" font-size="8" letter-spacing="4.8" fill="#9d6f38">13 · 09 · 2026</text>
  </g>
</svg>
